<?xml version="1.0" encoding="utf-8"?>
<!-- Generator: Adobe Illustrator 23.0.4, SVG Export Plug-In . SVG Version: 6.00 Build 0)  -->
<svg version="1.1" id="Layer_1" xmlns="http://www.w3.org/2000/svg" xmlns:xlink="http://www.w3.org/1999/xlink" x="0px" y="0px"
	 viewBox="0 0 841.9 595.3" style="enable-background:new 0 0 841.9 595.3;" xml:space="preserve">
<style type="text/css">
	.st0{fill:#050606;}
	.st1{fill:#070707;}
	.st2{fill:none;stroke:#070707;stroke-width:2;stroke-miterlimit:10;}
</style>
<g id="XMLID_1_">
	<g>
		<path class="st0" d="M628,372.6c0,0-10.5-12.2-36.7-15.3c-5.7-0.7-12.1-0.9-19.3-0.5c-3.4,0.2-6.9,0.5-10.7,1
			c-0.2,0-0.4,0.1-0.6,0.1c0-0.1-0.1-0.3-0.2-0.4c-0.6-1.5-1.6-3-2.7-4.3c0.2,0,0.6,0,1.1-0.1v0c2-0.1,6-0.3,11.2-0.2
			c5.7,0,12.8,0.4,20.1,1.3c5.7,0.7,11.5,1.8,17,3.4c9,2.7,16.9,6.8,21.2,13.2c2.8,4.2,3.3,5.4,2.9,5.3
			C630.8,375.8,628,372.6,628,372.6z"/>
		<path class="st0" d="M544.5,333.5c4.4-7.2,12.1-18.3,22.4-27.2c3.7-3.2,7.7-6.1,12.1-8.5c5-2.7,10.4-4.7,16.2-5.6
			c2.1-0.3,4.2-0.5,6.4-0.5c0,0-0.1,0-0.2,0c-1.1,0.2-5.7,1.2-12.1,4c-2.7,1.2-5.7,2.7-8.9,4.5c-3.8,2.2-7.8,5-11.9,8.4
			c-3.2,2.7-6.4,5.7-9.6,9.2c-3,3.3-5.9,7-8.7,11.2c-2.5,3.8-5,8-7.3,12.5l-0.2,0.2c-0.1-0.1-0.2-0.2-0.3-0.4l-1.7-0.2
			c-0.1,0-0.2,0-0.3,0l0-0.1C540.2,341.2,541.7,338.1,544.5,333.5z"/>
		<path class="st1" d="M260,393.5c0,0-11,9.8-15.2-1.2c0,0,6-19.2,10.2-10C255,382.2,259.5,392.8,260,393.5z"/>
		<path d="M259.7,342.7c-2.6,1.4-5.3,2.9-7.9,4.4c-0.5,0.3-1,0.6-1.5,0.8c-2.1,1.2-4.1,2.3-6,3.5c-0.5,0.3-1,0.6-1.4,0.8
			c-0.9,0.5-1.8,1-2.6,1.5h0c-2.9,1.7-5.2,3.1-6.8,4c-1.3,0.8-2,1.2-2,1.2c0.6-1.6,1.5-3.2,2.7-4.6c3-4,7.5-7.4,12.6-10.3
			c3.8-2.1,7.8-4,11.8-5.6c0.9-0.4,1.9-0.7,2.8-1.1c4.5-1.7,8.8-3,12.1-3.9c2.6-0.7,4.7-1.2,5.9-1.5c0.1,0.9,0.2,1.8,0.2,2.6
			c-0.4-0.6-2.3-0.3-5,0.8c0,0,0-0.1,0-0.1c0,0,0,0.1,0,0.1v0c-2.2,0.8-5.1,2.2-8.2,3.7c0-0.1,0-0.2,0-0.2c0,0.1,0,0.1,0,0.2
			C264.3,340.3,262,341.5,259.7,342.7z"/>
		<path class="st1" d="M526.6,398.3c-11.7-4.8-25.1,6.4-37,3c2.7-6.7,6.7-12.9,10.6-19c3.6-5.4,6.8-13.1,12.2-17.1
			C511.3,373.3,518.8,394.8,526.6,398.3z"/>
		<path class="st1" d="M513.5,271.3c0.8,8.9-5.7,19.5-5.3,29.8c0,0.7,0.1,1.4,0.1,2.1h0c-5.9-0.4-8.2-7-13.7-6.1
			c-6.8,1-7.8,10.5-15.1,10.5c-9.4-0.1-6.6-10.3-12.7-12.7c-7.5-2.9-11.2,6.6-16,9.4c-21,12.3-21.2-16.4-38.4-16
			c-11.8,0.3-22.6,30.4-35.6,12.3l-0.2-0.3c1-0.8,1.9-1.6,2.9-2.4c18.1-15.8,18.8-40.7,35.1-56.4c22-21.2,12.7,28.9,29.8,34.4
			c11.5,3.7,10.8-8.8,16.2-16.3c5.9-8.2,14.6-15.7,21-5.3c4.3,7,6.5,37,15.1,23.3C502.7,267.7,512.1,256.5,513.5,271.3z"/>
		<path class="st1" d="M408.8,216.8c-12.1-1.7-25.7,7-26.5,7.5l9.2-8.7l-13.2,3.2c2-3.8,14.2-7.8,14.2-7.8c1.5-3.2,5.1-9.4,6.2-11.2
			c1.5,0.3,3,0.5,4.4,0.6l0,0.4c-4.2,1.5-5.2,10.8-5.2,10.8C403.5,211.2,408.8,216.8,408.8,216.8z"/>
		<path class="st1" d="M387.9,494.9c1.8,8.7-11.4,6.9-14.8,2.3l0,0C369.5,489.5,386.2,486.9,387.9,494.9z"/>
		<path class="st1" d="M384.8,208c-12.1-1.7-25.7,7-26.5,7.5l9.2-8.7l-13.2,3.2c2-3.8,14.2-7.8,14.2-7.8c1.6-3.4,5.7-10.5,6.4-11.6
			c1.5,0.9,2.9,1.7,4.4,2.5l0,0.1c-4.2,1.5-5.5,9.5-5.5,9.5C379.5,202.5,384.8,208,384.8,208z"/>
		<rect x="360.7" y="264.3" class="st1" width="8" height="8"/>
		<rect x="348.3" y="282.3" class="st1" width="8" height="8"/>
		<path d="M352.4,133.3c0.1,2.5-1.8,4.6-4.3,4.7c-2.5,0.1-4.6-1.8-4.7-4.3c-0.1-2.5,1.8-4.6,4.3-4.7
			C350.2,129,352.3,130.9,352.4,133.3z"/>
		<rect x="300" y="283.7" class="st1" width="8" height="8"/>
		<rect x="288.7" y="269.7" class="st1" width="8" height="8"/>
		<path d="M282,184.3c1.4,0.8,1.9,2.5,1.1,3.9c-0.8,1.4-2.5,1.9-3.9,1.1c-1.4-0.8-1.9-2.5-1.1-3.9C278.9,184,280.6,183.5,282,184.3z
			"/>
		<path class="st1" d="M237.2,305c-6.1,0.4-21.9,1.2-13.1-0.1c13-2,18.5-13.9,18.5-13.9l39.7,0.7l0.9,0l-0.4,11.6h-0.1l-43.2,1.5
			C239.5,304.9,238.6,304.9,237.2,305z"/>
		<path d="M281.5,173.4c1.4,0.8,1.9,2.5,1.1,3.9c-0.8,1.4-2.5,1.9-3.9,1.1c-1.4-0.8-1.9-2.5-1.1-3.9
			C278.4,173.1,280.1,172.6,281.5,173.4z"/>
		<path d="M280.1,164.1c1.4,0.8,1.9,2.5,1.1,3.9c-0.8,1.4-2.5,1.9-3.9,1.1c-1.4-0.8-1.9-2.5-1.1-3.9
			C277,163.8,278.7,163.3,280.1,164.1z"/>
		<path d="M272,178.7c1.4,0.8,1.9,2.5,1.1,3.9c-0.8,1.4-2.5,1.9-3.9,1.1c-1.4-0.8-1.9-2.5-1.1-3.9C268.9,178.5,270.6,178,272,178.7z
			"/>
		<path d="M271.3,168.2c1.4,0.8,1.9,2.5,1.1,3.9c-0.8,1.4-2.5,1.9-3.9,1.1c-1.4-0.8-1.9-2.5-1.1-3.9
			C268.1,168,269.9,167.5,271.3,168.2z"/>
		<path d="M262,173.2c1.4,0.8,1.9,2.5,1.1,3.9c-0.8,1.4-2.5,1.9-3.9,1.1c-1.4-0.8-1.9-2.5-1.1-3.9
			C258.9,172.9,260.6,172.4,262,173.2z"/>
	</g>
	<g>
		<path class="st2" d="M469.7,404.3C469.7,404.3,469.7,404.3,469.7,404.3"/>
		<path class="st2" d="M469.7,404.3c19,0.5,39.1,1.3,57.3-2.4c-9.3,10.1-17.3,18.8-32.2,18.6c-12.3-0.1-23.6-6.5-29.4-17.1
			C467,404.1,468,403.9,469.7,404.3z"/>
		<path class="st2" d="M469.6,404.3C469.6,404.3,469.6,404.3,469.6,404.3"/>
		<path class="st2" d="M489.6,401.3c-0.2,0-0.3-0.1-0.5-0.1"/>
		<path class="st2" d="M489.6,401.3c2.7-6.7,6.7-12.9,10.6-19c3.6-5.4,6.8-13.1,12.2-17.1c-1.1,8.1,6.4,29.5,14.2,33
			C515,393.5,501.5,404.6,489.6,401.3z"/>
		<path class="st2" d="M488.5,404.3c0.3-1,0.7-2.1,1.1-3.1"/>
		<path class="st2" d="M584.3,236.7c0,8.3-6.8,15.1-15.1,15.1c-8.3,0-15.1-6.8-15.1-15.1c0-8.3,6.8-15.1,15.1-15.1
			C577.5,221.6,584.3,228.3,584.3,236.7z"/>
		<path class="st2" d="M352.4,133.3c0.1,2.5-1.8,4.6-4.3,4.7c-2.5,0.1-4.6-1.8-4.7-4.3c-0.1-2.5,1.8-4.6,4.3-4.7
			C350.2,129,352.3,130.9,352.4,133.3z"/>
		<path class="st2" d="M281.2,168c-0.8,1.4-2.5,1.9-3.9,1.1c-1.4-0.8-1.9-2.5-1.1-3.9c0.8-1.4,2.5-1.9,3.9-1.1
			C281.5,164.9,282,166.6,281.2,168z"/>
		<path class="st2" d="M272.4,172.1c-0.8,1.4-2.5,1.9-3.9,1.1c-1.4-0.8-1.9-2.5-1.1-3.9c0.8-1.4,2.5-1.9,3.9-1.1
			C272.6,169,273.1,170.8,272.4,172.1z"/>
		<path class="st2" d="M282.6,177.3c-0.8,1.4-2.5,1.9-3.9,1.1c-1.4-0.8-1.9-2.5-1.1-3.9c0.8-1.4,2.5-1.9,3.9-1.1
			C282.9,174.2,283.4,175.9,282.6,177.3z"/>
		<path class="st2" d="M263.1,177.1c-0.8,1.4-2.5,1.9-3.9,1.1c-1.4-0.8-1.9-2.5-1.1-3.9c0.8-1.4,2.5-1.9,3.9-1.1
			C263.4,173.9,263.9,175.7,263.1,177.1z"/>
		<path class="st2" d="M273.1,182.6c-0.8,1.4-2.5,1.9-3.9,1.1c-1.4-0.8-1.9-2.5-1.1-3.9c0.8-1.4,2.5-1.9,3.9-1.1
			C273.4,179.5,273.9,181.2,273.1,182.6z"/>
		<path class="st2" d="M283.2,188.2c-0.8,1.4-2.5,1.9-3.9,1.1c-1.4-0.8-1.9-2.5-1.1-3.9c0.8-1.4,2.5-1.9,3.9-1.1
			C283.4,185,283.9,186.8,283.2,188.2z"/>
		<path class="st2" d="M298.4,326.7c4.4,0,8.7-0.2,13-0.6c11-1,21.7-3.2,32-7c10.3-3.7,20.2-9,29.3-15.8c1.3-1,2.5-1.9,3.8-3
			c1-0.8,1.9-1.6,2.9-2.4c18.1-15.8,18.8-40.7,35.1-56.4c22-21.2,12.7,28.9,29.8,34.4c11.5,3.7,10.8-8.8,16.2-16.3
			c5.9-8.2,14.6-15.7,21-5.3c4.3,7,6.5,37,15.1,23.3c6-10,15.4-21.2,16.8-6.4c0.8,8.9-5.7,19.5-5.3,29.8c0,0.7,0.1,1.4,0.1,2.1
			c1.3,22.4,10.3,38.7,32.2,38.8c0.4,0,0.7,0,1.1,0c-8.5,4.6-16.9,1.5-27.1,2.5c-23.2,2.3-46.2,3.5-69.4,5.9
			c-31,3.2-63.5,3.2-94.8,2.9c-16.5-0.1-32.8-4.1-48.8-7.2c-12.9-2.5-17.7-5.6-21.1-14.3c-0.8-2-1.5-4.4-2.2-7.1
			c1.2,0,2.5,0.1,3.7,0.2C287.8,325.5,294.2,326.8,298.4,326.7c0,0.1,0.1,0.1,0.1,0.1"/>
		<path class="st2" d="M277.1,324.5c1,2.2,1.7,4.3,2.1,6.4c0.1,0.4,0.1,0.8,0.2,1.1c0.1,0.9,0.2,1.8,0.2,2.6c0,0.3,0,0.6,0,0.9
			c0.1,16.5-16.8,29.1-14.4,47.8c1,7.5,3.8,12.9,9.9,17.7c3.1,2.4,10.3,4,12.3,7.9c4.7,9.1-5.5,20.1-4.1,29.6
			c1.9,12.5,14.6,20.2,26.9,18.1c11.5-1.9,19.6-15,31.7-14.9c9.6,0,19,9.6,26.9,14.1c9.7,5.6,19.1,11.1,28.5,17
			c10.4,6.5,23.8,6.9,35.4,3c12-4.1,19.5-16.7,30.6-20.3c8.7-2.9,21.7,0.9,30.9,0.1c12.3-1,25.4-4.7,37.3-8.2
			c17.1-5.1,45.8-17.8,55.1-33.4c14.7-24.8-17.3-18.4-24-35.1c-2.6-6.4,0.4-14.5-2-20.9c0-0.1-0.1-0.3-0.2-0.4
			c-0.6-1.5-1.6-3-2.7-4.3c-3.1-3.7-7.4-6.8-9.8-8.6"/>
		<path class="st2" d="M296.2,387.4c15.5-11.3,23.5-14.7,41.5-6.1c18.4,8.7,29.7,5.6,48-1.1c15.2-5.6,26.6,6.6,41.2,2.7
			c6.3-1.7,10.3-8.5,17.3-10.5c6.6-1.9,16.5-2.1,22.4,1.1"/>
		<path class="st2" d="M376.7,300.7c13.1,18.1,23.8-12,35.6-12.3c17.1-0.4,17.3,28.3,38.4,16c4.8-2.8,8.5-12.3,16-9.4
			c6.1,2.4,3.3,12.6,12.7,12.7c7.4,0,8.4-9.4,15.1-10.5c5.5-0.8,7.8,5.8,13.7,6.1"/>
		<path class="st2" d="M565,318.6c7.2,0.8,17.6,2.9,17.8,7.1c0.2,3.7-13.2,3.6-23.1,3.5c-4.3,0-8-0.1-9.6,0.2
			c2.3-0.7,5.9-0.7,9.6-0.2c5.1,0.7,10.3,2.5,12.8,5c0.4,0.3,0.7,0.7,0.9,1.1c-1.4,0.8-2.9,1.4-4.7,1.8c-6.5,1.6-15.2,0.9-21.2,1.6
			c1.3,0.2,4,2.4,5.4,3c-1.4,1.9-3.2,2.9-4.9,3.1c-2,0.2-4-0.8-5.6-2.7c-0.1-0.1-0.2-0.2-0.3-0.4"/>
		<path class="st2" d="M558.9,318.1c0.1,0,0.3,0,0.5,0c1.2,0,3.2,0.2,5.4,0.4"/>
		<path class="st2" d="M564.8,318.5c-2.3-0.2-4.3-0.4-5.4-0.4"/>
		<path class="st2" d="M564.8,318.5c0.1,0,0.1,0,0.2,0"/>
		<path class="st2" d="M589.3,296C589.3,296,589.3,296,589.3,296c4.1-0.3,8.3-0.3,11.8,1.1c2.6,1.1,4.8,3,6.1,6.2
			c-4.8,1.5-9.3,1.8-13.9,1.5c-4.5-0.3-9-1.1-13.8-1.9c0.3,0,0.6,0,1-0.1c4.5-0.3,9.6-0.4,12.8,2c1.6,1.2,2.8,3,3.2,5.7
			c-3.2,0.2-6.3,0.2-9.4,0.1c-6.2-0.2-12.2-0.8-18.4-1.7c2.7,0,13.1-0.3,18.4,1.7c3.1,1.1,4.5,3,1.4,6.2c-3,3.1-15.4,2.3-23.4,1.6"
			/>
		<path class="st2" d="M540.5,341.4c-0.1,0-0.2,0-0.3,0c-10.7-1.8-19.6-21.2-18-31.6c8.6,5.7,11.4,19,21.2,22.5
			c-2.5-9-11.5-24.3-2.3-32.3c4.5,6.3,6.6,10.5,9,18.2c-0.6-8.6-4.3-19.2,2.7-25.7c3.2,4.4,2.1,11,4.5,15.8c1.2-7.1,1-19.1,9.1-21.8
			c0.3,5.1,0.2,10.4,0.2,15.6c0,1.4,0,2.8,0,4.2c-0.1-1.2-0.1-2.6,0-4.2c0.6-8.5,4.6-21.1,12.6-20.9c0.3,6.4,0.4,8.9-0.4,15.1
			c4.3-6.4,5.6-17.7,15.1-16.8c2.2,0.5,3.2,3,3,5.8c-0.1,2-0.8,4.1-2.1,5.7c0.3-2.5,1-4.3,2.1-5.7c2.8-3.7,8-4.3,14.3-5.3
			c0.6,5.1-5.6,9-9.6,11.9c5.7-0.9,15.6,0.2,17.1,5.9c-6.2,0.9-12.1,0.2-17.7-0.6c-4-0.6-7.9-1.1-11.7-1.1"/>
		<path class="st2" d="M572,357.4C572,357.4,572,357.4,572,357.4c0,0.3,0,0.8-0.1,1.3c-0.2,2.8-0.9,8.4-1.2,11.5
			c-5-0.5-6.2-6.4-6.2-11.2c-0.1,1.5-0.2,3.4-0.2,4.9c-2.4-1.4-2.2-2.7-3-5.7"/>
		<path class="st2" d="M579.7,362.2c0.8,11.8-8,7.6-7.8-3.5c0-0.4,0-0.8,0.1-1.3"/>
		<path class="st2" d="M579.7,362.2c-0.3-1.4-0.5-2.5-0.4-3C579.5,360.3,579.7,361.3,579.7,362.2z"/>
		<path class="st2" d="M579.7,362.2C579.7,362.2,579.7,362.2,579.7,362.2"/>
		<path class="st2" d="M600.6,369.8c-2.1,7.1-10.1,2.2-9.6-9.8c-1.1,5.6-6.6,20.2-9,9.9c-0.7-2-1.7-5.3-2.2-7.7"/>
		<path class="st2" d="M600.6,369.8c-0.1-3,0.2-6,0.2-7.8C601.3,365.5,601.1,368,600.6,369.8z"/>
		<path class="st2" d="M628,363.8c7.2-1.2,8,4.7,6.7,12.8c-1.1-0.1-2.2-0.2-3.3-0.5c-5.1-1.3-10.3-4.9-14.5-7.5
			c2.4,3.1,14.4,16.8,2,15.7c-6.7-0.6-7.6-12.8-8.5-17.8c0.4,4.1,0.9,13.7-5.3,12.5c-3.4-0.6-4.3-4.8-4.5-9.1"/>
		<path class="st2" d="M628,363.8c-0.9,0.3-2,0.6-3.2,0.9C626,364.2,627.1,363.9,628,363.8z"/>
		<path class="st2" d="M628.6,356.2c5.2,0.5,7.3,4.9-0.6,7.6"/>
		<path class="st2" d="M628.6,356.2c-1.3,0.9-4.3,2-9.8,3.2C622.3,356.7,625.9,355.9,628.6,356.2z"/>
		<path class="st2" d="M628.6,356.2C628.6,356.2,628.6,356.2,628.6,356.2"/>
		<path class="st2" d="M606.7,355.6C606.7,355.6,606.7,355.6,606.7,355.6c11.3-3.9,26.1-2.5,21.9,0.5"/>
		<path class="st2" d="M559,353.2c2.9-6,5.4-11.9,9.8-16.2c1.1-1.1,2.4-2.1,3.8-2.9c2.7-1.6,5.9-2.7,10-3c0.9,8-10.7,13-12.3,21.1
			c11.7-5.1,21.2-18.7,35.7-16.8c0.5,2.8-0.3,5.2-1.7,7.3c-3.1,4.5-9.3,7.7-13.7,10c1.2-5.4,7.2-8.5,13.7-10
			c5.2-1.2,10.8-1.4,14.5-1c1.2,6.8-6.8,11.6-12.1,13.9"/>
		<path class="st2" d="M336.7,421.5c12.4-2.3,17.2-8.2,30.9-3.4c8.2,2.9,16.8,11,25.6,12c18.9,2,31.4-16,51.4-10.9
			c9.3,2.3,12.7,3,22.1,1.1c10.2-2.1,11.2-0.1,19.9,3.7c17.9,7.9,31.4-7.8,49.3-6.7c1.9,0.1,4.4,0.8,6.4,1.1"/>
		<path class="st2" d="M248.3,426.8c19.7,40.7,69.7,60.4,110.7,68.1"/>
		<path class="st2" d="M373,497.2c-3.5-7.7,13.2-10.3,14.8-2.3C389.7,503.6,376.5,501.9,373,497.2c0,0-0.1-0.1-0.1-0.2"/>
		<path class="st2" d="M409.1,500.2c18.7,7,48.2-0.5,67.1-4.3c24.8-5,50.8-10.8,73.5-22.4c17-8.7,28.7-20.4,42.6-33
			c8.7-7.9,20.4-18,23.4-29.8"/>
		<rect x="288.7" y="269.7" class="st2" width="8" height="8"/>
		<rect x="301.3" y="269.7" class="st2" width="8" height="8"/>
		<rect x="288.7" y="284.3" class="st2" width="8" height="8"/>
		<rect x="300" y="283.7" class="st2" width="8" height="8"/>
		<rect x="316" y="291" class="st2" width="8" height="8"/>
		<rect x="331.3" y="291" class="st2" width="8" height="8"/>
		<rect x="349" y="271.3" class="st2" width="8" height="8"/>
		<rect x="360.7" y="264.3" class="st2" width="8" height="8"/>
		<rect x="348.3" y="282.3" class="st2" width="8" height="8"/>
		<rect x="360.3" y="278" class="st2" width="8" height="8"/>
		<path class="st2" d="M228,421.4c-0.2-0.1-0.5-0.2-0.7-0.4"/>
		<path class="st2" d="M228,421.4c0.8-4.3,2.8-12.6,6.4-15.2c4.8-3.4,11.1,1.2,15.7,0.3c2.1-0.4,2.9-2.7,5.8-2.8
			c4.6-0.2,4,1.5,7.3,4c5.7,4.2,8.6,4.8,9.2,11.9c-7.6,0.4-15.7-0.9-23.2,0.1C242.6,420.5,234.9,424.5,228,421.4z"/>
		<path class="st2" d="M228,421.7c0-0.1,0-0.2,0-0.3"/>
		<path class="st2" d="M453.8,126c13.2,0.4,28,2.4,6.9,10.3c0,0-34,14.8-44.5,12.5c0,0,20.8,5.5,28.2,29l49.5,8
			c0,0,65.8,10.2,4.2,12.5c0,0,57.5,14.2-2,9c0,0,58.8,25.8-11.2,8.5c0,0,42.2,31.5-16.5,3.5l-27.2-15.8c0,0-7.8-6.2-26.5-3
			c0,0-4.6,0.7-11.7-0.1c-1.4-0.1-2.8-0.4-4.4-0.6c-5.7-1-12.4-3-19.4-6.6c-1.4-0.8-2.9-1.6-4.4-2.5c-8.8-5.4-17.7-13.7-25.4-26.2
			c0,0-11.2-2.2-19.2-8.3c-3.8-2.9-6.9-6.7-7.8-11.5c-0.9-5,0.6-11.1,6.2-18.5c0,0,23.2-25.5,41.8,7.5c0,0,19.5,2.2,52.8-54.8
			c0,0,7-30.8,29.2-11.2c0,0,11.8,6.5,25.2-2.2c0,0,45.5-22.8,21.8,6.2c0,0-33.2,22.2-51.4,16.3"/>
		<path class="st2" d="M453.8,126c-4.5,0.5-9.2,0.6-14.1,0C439.8,126,446.5,125.8,453.8,126z"/>
		<path class="st2" d="M456.3,115.6c10.5,0.5,23.6,1.6,21.5,4.2c0,0-10.4,4.8-23.9,6.2"/>
		<path class="st2" d="M456.3,115.6c-3.9,0.5-8,0.4-12-0.3C444.2,115.2,449.7,115.3,456.3,115.6z"/>
		<path class="st2" d="M492,98.8C492,98.8,492,98.8,492,98.8c-0.5,0.5-16.6,14.6-35.7,16.8"/>
		<path class="st2" d="M452,102.2c0.1,0,0.1,0,0.2,0c0.7,0.1,3.7,0.4,7.9,0.6c9.2,0.4,24,0.3,32-4.1"/>
		<path class="st2" d="M448,88C448,88,448,88,448,88c1.7,0.6,26,9.4,49.5-8.2c0,0-10.2,23-37.5,23.1c-2.5,0-5.1-0.2-7.9-0.6"/>
		<path class="st2" d="M358.2,215.5C358.2,215.5,358.3,215.5,358.2,215.5c0.8-0.5,14.4-9.2,26.5-7.5c0,0-5.2-5.5-11-5.2
			c0,0,1.2-8,5.5-9.5"/>
		<path class="st2" d="M375,190.5c0,0,0,0-0.1,0.2c-0.7,1.1-4.8,8.1-6.4,11.6c0,0-12.2,4-14.2,7.8l13.2-3.2l-9.2,8.7"/>
		<path class="st2" d="M382.2,224.2C382.2,224.2,382.3,224.2,382.2,224.2c0.8-0.5,14.4-9.2,26.5-7.5c0,0-5.2-5.5-11-5.2
			c0,0,1-9.2,5.2-10.8"/>
		<path class="st2" d="M399,199.2c0,0-0.1,0.2-0.3,0.5c-1.1,1.8-4.7,8-6.2,11.2c0,0-12.2,4-14.2,7.8l13.2-3.2l-9.2,8.7"/>
		<polyline class="st2" points="322.5,144.8 309.2,153.9 299.2,160.8 316.7,158.3 320.2,157.8 319,160 319,160 323.2,162.8 
			330.2,156.2 		"/>
		<path class="st2" d="M309,153.5l-25.8-12l-41,36c0,0,76.2,33.2,82.2,41.5l27.5-38l-28.8-18.2"/>
		<polyline class="st2" points="283.2,141.5 294.5,181.8 352,181 		"/>
		<polyline class="st2" points="282,325.3 282,325 282.8,303.3 283.2,291.7 284.3,259.7 313,260.7 312.4,283.7 311.3,325.7 		"/>
		<polyline class="st2" points="312.7,283.7 344.3,284 343.3,319.2 343.3,319.3 		"/>
		<path class="st2" d="M282.3,291.7l-39.7-0.7c0,0-5.5,11.9-18.5,13.9c-8.8,1.3,7,0.5,13.1,0.1c1.4-0.1,2.2-0.1,2.2-0.1l43.2-1.5"/>
		<path class="st2" d="M237.2,304.8v0.3l-0.2,26.3c0,0,35.6-6.6,42.2-0.4c0,0,0.1,0.1,0.1,0.1"/>
		<polyline class="st2" points="344.3,284 344.7,261 372.3,260.7 372.7,303.3 372.7,303.7 		"/>
		<path class="st2" d="M268.8,315.2c0,0,0,0.1,0,0.1c0,4.8-3.9,8.6-8.6,8.6c-4.8,0-8.6-3.9-8.6-8.6c0,0,0-0.1,0-0.1
			c0.1-4.7,3.9-8.5,8.6-8.5C264.9,306.8,268.7,310.5,268.8,315.2z"/>
		<polyline class="st2" points="251.2,315.2 251.5,315.2 268.8,315.2 		"/>
		<path class="st2" d="M273.5,333.5c0,0-20-3.8-39.5,2.8c0,0,27.8-2.2,27.2,0.8"/>
		<path class="st2" d="M258.5,338.2c0,0-22.8-3.5-38,9c0,0,11.7-2.6,19.5-3.5c3.8-0.5,6.6-0.5,6.8,0.3"/>
		<path class="st2" d="M240,343.8c0,0-27.2,14.2-29.8,18.2c0,0,22-6.2,23.8-7.8"/>
		<path class="st2" d="M240.2,353.8C240.2,353.8,240.2,353.8,240.2,353.8"/>
		<path class="st2" d="M233.5,357.8L233.5,357.8l-6.2,12.2c0,0,3.6-2.1,7.1-5.8c2.5-2.7,5-6.2,5.9-10.4"/>
		<path class="st2" d="M234.4,364c0,0,0,0.1,0,0.2c-0.3,1.6-2.8,14-2.3,20.6c0,0,8.5-15.2,11-32.2"/>
		<path class="st2" d="M244.5,351.8c0,0-5,20.5-0.5,23.2c0,0,5.9-19.6,6.4-26.9"/>
		<path class="st2" d="M251.8,347.1c0,0-3.8,15.4-1.5,21.9c0,0,6-15,8.7-23.5c0.3-1,0.6-2,0.8-2.8c0-0.1,0-0.2,0.1-0.2"/>
		<path class="st2" d="M274.7,335.4c-2.2,0.8-5.1,2.2-8.2,3.7c0,0,0,0,0,0c-2.1,1.1-4.4,2.3-6.8,3.5c-2.6,1.4-5.3,2.9-7.9,4.4
			c-0.5,0.3-1,0.6-1.5,0.8c-2.1,1.2-4.1,2.3-6,3.5c-0.5,0.3-1,0.6-1.4,0.8c-0.9,0.5-1.8,1-2.6,1.5h0c-2.9,1.7-5.2,3.1-6.8,4
			c-1.3,0.8-2,1.2-2,1.2c0.6-1.6,1.5-3.2,2.7-4.6c3-4,7.5-7.4,12.6-10.3c3.8-2.1,7.8-4,11.8-5.6c0.9-0.4,1.9-0.7,2.8-1.1
			c4.5-1.7,8.8-3,12.1-3.9c2.6-0.7,4.7-1.2,5.9-1.5c0.5-0.1,0.9-0.2,1.1-0.2c0.2,0,0.2,0,0.2,0"/>
		<path class="st2" d="M274.8,335.2C274.8,335.3,274.7,335.3,274.8,335.2C274.7,335.3,274.7,335.3,274.8,335.2c0,0.1,0,0.1,0,0.2
			c-0.3,1.2-1.7,7.6-1.2,10.8c0,0,4.9-3.9,6.2-10.7c0-0.1,0-0.2,0.1-0.3c0-0.2,0-0.4-0.1-0.6c-0.4-0.6-2.3-0.3-5,0.8c0,0,0,0,0,0"/>
		<path class="st2" d="M274.7,335.4c0,0,0-0.1,0-0.1"/>
		<line class="st2" x1="274.7" y1="335.4" x2="274.7" y2="335.4"/>
		<path class="st2" d="M259.4,343.1c0,0-0.2,0.9-0.5,2.4c-0.7,3.8-1.9,11.1-1.2,14.8c0,0,6.2-9.9,8.7-21c0-0.1,0-0.1,0-0.2
			c0,0,0,0.1,0,0.2c-0.2,1.5-1.2,11.3-0.5,15.9c0.1,0.3,0.1,0.7,0.2,1c1.2,4.2,7.1-15.9,8.4-20.6"/>
		<path class="st2" d="M260,393.5c0,0-11,9.8-15.2-1.2c0,0,6-19.2,10.2-10C255,382.2,259.5,392.8,260,393.5z"/>
		<path class="st2" d="M540.2,341.2c0,0,1.5-3.1,4.3-7.7c4.4-7.2,12.1-18.3,22.4-27.2c3.7-3.2,7.7-6.1,12.1-8.5
			c5-2.7,10.4-4.7,16.2-5.6c2.1-0.3,4.2-0.5,6.4-0.5c0,0-0.1,0-0.2,0c-1.1,0.2-5.7,1.2-12.1,4c-2.7,1.2-5.7,2.7-8.9,4.5
			c-3.8,2.2-7.8,5-11.9,8.4c-3.2,2.7-6.4,5.7-9.6,9.2c-3,3.3-5.9,7-8.7,11.2c-2.5,3.8-5,8-7.3,12.5"/>
		<path class="st2" d="M557.8,353.2c0,0,0.1,0,0.2,0c0.2,0,0.6,0,1.1-0.1v0c2-0.1,6-0.3,11.2-0.2c5.7,0,12.8,0.4,20.1,1.3
			c5.7,0.7,11.5,1.8,17,3.4c9,2.7,16.9,6.8,21.2,13.2c2.8,4.2,3.3,5.4,2.9,5.3c-0.6-0.2-3.4-3.5-3.4-3.5s-10.5-12.2-36.7-15.3
			c-5.7-0.7-12.1-0.9-19.3-0.5c-3.4,0.2-6.9,0.5-10.7,1c-0.2,0-0.4,0.1-0.6,0.1c-0.2,0-0.3,0.1-0.5,0.1"/>
		<line class="st2" x1="569" y1="200.3" x2="569" y2="213"/>
		<line class="st2" x1="569.7" y1="257" x2="569.7" y2="269.7"/>
		<line class="st2" x1="555.2" y1="250.4" x2="548.1" y2="260.9"/>
		<line class="st2" x1="598.8" y1="216" x2="588.2" y2="222.6"/>
		<line class="st2" x1="603.1" y1="239.8" x2="590.6" y2="240.1"/>
		<line class="st2" x1="547.8" y1="238.1" x2="535.3" y2="238.4"/>
		<line class="st2" x1="593.7" y1="261" x2="584.7" y2="252.2"/>
		<line class="st2" x1="554" y1="219.7" x2="545.1" y2="210.9"/>
		<polyline class="st2" points="319.3,160.2 319,160 316.7,158.3 316.7,158.2 		"/>
	</g>
</g>
</svg>
